<svg width="24" height="24" viewBox="0 0 24 24" fill="none" xmlns="http://www.w3.org/2000/svg">
<path d="M11.8301 4.49591C12.1306 3.57695 13.43 3.57695 13.7305 4.49591L14.6191 7.21466C15.1982 8.98541 16.5675 10.3862 18.3242 11.0067L20.3213 11.7127C21.2099 12.0271 21.2101 13.2842 20.3213 13.5984L18.3242 14.3035C16.5674 14.924 15.1982 16.3256 14.6191 18.0965L13.7305 20.8143C13.43 21.7332 12.1306 21.7332 11.8301 20.8143L10.9404 18.0965C10.3614 16.3257 8.99294 14.9241 7.23633 14.3035L5.23926 13.5984C4.35002 13.2844 4.35018 12.0269 5.23926 11.7127L7.23633 11.0067C8.99278 10.3861 10.3614 8.98522 10.9404 7.21466L11.8301 4.49591ZM5.50391 2.9129C5.686 2.35714 6.47232 2.35704 6.6543 2.9129L6.69531 3.03986C7.01977 4.03201 7.7872 4.81723 8.77148 5.16486C9.26943 5.34097 9.2695 6.04545 8.77148 6.2215C7.78715 6.56914 7.01974 7.35427 6.69531 8.3465L6.6543 8.47247C6.47242 9.02871 5.68578 9.02871 5.50391 8.47247L5.46191 8.3465C5.13752 7.35437 4.37091 6.5692 3.38672 6.2215C2.88845 6.04552 2.88845 5.34083 3.38672 5.16486C4.37087 4.81721 5.13745 4.03188 5.46191 3.03986L5.50391 2.9129Z" fill="url(#paint0_linear_313_1430)"/>
<defs>
<linearGradient id="paint0_linear_313_1430" x1="6.52405" y1="5.72505" x2="16.2042" y2="19.9606" gradientUnits="userSpaceOnUse">
<stop stop-color="#4C7DFF"/>
<stop offset="1" stop-color="#7A36F5"/>
</linearGradient>
</defs>
</svg>
