<svg width="24" height="24" viewBox="0 0 24 24" fill="none" xmlns="http://www.w3.org/2000/svg">
<rect width="24" height="24" rx="12" fill="#D9E6FF"/>
<path d="M12 6.50098C12.4141 6.50111 12.75 6.83684 12.75 7.25098V11.25H16.749C17.1631 11.2501 17.499 11.5859 17.499 12C17.499 12.4142 17.1632 12.7499 16.749 12.75H12.75V16.749L12.7461 16.8262C12.7076 17.2042 12.3882 17.4989 12 17.499C11.6117 17.499 11.2924 17.2043 11.2539 16.8262L11.25 16.749V12.75H7.25098L7.17383 12.7461C6.79568 12.7076 6.50098 12.3883 6.50098 12C6.50104 11.6118 6.79572 11.2924 7.17383 11.2539L7.25098 11.25H11.25V7.25098C11.25 6.83676 11.5858 6.50098 12 6.50098Z" fill="#7FA4FF"/>
</svg>
