<svg width="82" height="82" viewBox="0 0 82 82" fill="none" xmlns="http://www.w3.org/2000/svg">
<path d="M57.8578 50.9083C60.2867 48.4794 64.2247 48.4794 66.6537 50.9083L73.6049 57.8585C76.0338 60.2874 76.0338 64.2264 73.6049 66.6554L66.6537 73.6056C64.2247 76.0345 60.2867 76.0345 57.8578 73.6056L50.9076 66.6554C48.4787 64.2264 48.4787 60.2874 50.9076 57.8585L57.8578 50.9083ZM57.5844 7.24815C60.0133 4.81921 63.9513 4.81921 66.3803 7.24815L73.3314 14.1993C75.7602 16.6283 75.7603 20.5663 73.3314 22.9952L22.9945 73.3321C20.5656 75.761 16.6276 75.7609 14.1986 73.3321L7.24744 66.381C4.8185 63.952 4.8185 60.014 7.24744 57.5851L57.5844 7.24815ZM13.9252 6.97472C16.3541 4.54581 20.2921 4.54579 22.7211 6.97472L29.6722 13.9259C32.101 16.3548 32.1011 20.2929 29.6722 22.7218L22.7211 29.673C20.2922 32.1018 16.3541 32.1017 13.9252 29.673L6.974 22.7218C4.54509 20.2929 4.54515 16.3548 6.974 13.9259L13.9252 6.97472Z" fill="#4C7DFF"/>
</svg>
