<svg width="16" height="16" viewBox="0 0 16 16" fill="none" xmlns="http://www.w3.org/2000/svg">
<path d="M4.46512 5.5C4.32558 5.5 4.21318 5.55319 4.12791 5.65957C4.04264 5.76596 4 5.89007 4 6.03191C4 6.06738 4.04651 6.19149 4.13953 6.40425L7.51163 10.2606C7.58915 10.3493 7.66667 10.4113 7.74419 10.4468C7.82171 10.4823 7.90698 10.5 8 10.5C8.09302 10.5 8.17829 10.4823 8.25581 10.4468C8.33333 10.4113 8.41085 10.3493 8.48837 10.2606L11.8605 6.40425C11.907 6.35106 11.9419 6.29344 11.9651 6.23138C11.9884 6.16933 12 6.10284 12 6.03191C12 5.89007 11.9574 5.76596 11.8721 5.65957C11.7868 5.55319 11.6744 5.5 11.5349 5.5H4.46512Z" fill="#151B26"/>
</svg>
