<svg width="24" height="24" viewBox="0 0 24 24" fill="none" xmlns="http://www.w3.org/2000/svg">
<path fill-rule="evenodd" clip-rule="evenodd" d="M21.5875 11.2801C21.9854 11.2801 22.3078 11.6025 22.3078 12.0003C22.3077 12.3979 21.9858 12.7196 21.5882 12.7198L12.719 12.7198L12.7197 21.5884C12.7196 21.986 12.3977 22.3076 12.0002 22.3079C11.6023 22.3079 11.2799 21.9855 11.2799 21.5877V12.7198H2.4121C2.01426 12.7198 1.69188 12.3975 1.69187 11.9996C1.69214 11.6021 2.0138 11.2802 2.41141 11.2801L11.2799 11.2808L11.2799 2.41156C11.2802 2.01399 11.6019 1.69211 11.9995 1.69202C12.3973 1.69202 12.7197 2.0144 12.7197 2.41225L12.7197 11.2801L21.5875 11.2801Z" fill="#151B26"/>
</svg>
