<svg width="24" height="24" viewBox="0 0 24 24" fill="none" xmlns="http://www.w3.org/2000/svg">
<path d="M12 13.26L14.61 15.87C14.775 16.035 14.985 16.1175 15.24 16.1175C15.495 16.1175 15.705 16.035 15.87 15.87C16.035 15.705 16.1175 15.495 16.1175 15.24C16.1175 14.985 16.035 14.775 15.87 14.61L13.26 12L15.87 9.39C16.035 9.225 16.1175 9.015 16.1175 8.76C16.1175 8.505 16.035 8.295 15.87 8.13C15.705 7.965 15.495 7.8825 15.24 7.8825C14.985 7.8825 14.775 7.965 14.61 8.13L12 10.74L9.39 8.13C9.225 7.965 9.015 7.8825 8.76 7.8825C8.505 7.8825 8.295 7.965 8.13 8.13C7.965 8.295 7.8825 8.505 7.8825 8.76C7.8825 9.015 7.965 9.225 8.13 9.39L10.74 12L8.13 14.61C7.965 14.775 7.8825 14.985 7.8825 15.24C7.8825 15.495 7.965 15.705 8.13 15.87C8.295 16.035 8.505 16.1175 8.76 16.1175C9.015 16.1175 9.225 16.035 9.39 15.87L12 13.26ZM12 21C10.755 21 9.585 20.7636 8.49 20.2908C7.395 19.818 6.4425 19.1769 5.6325 18.3675C4.8225 17.5581 4.1814 16.6056 3.7092 15.51C3.237 14.4144 3.0006 13.2444 3 12C2.9994 10.7556 3.2358 9.5856 3.7092 8.49C4.1826 7.3944 4.8237 6.4419 5.6325 5.6325C6.4413 4.8231 7.3938 4.182 8.49 3.7092C9.5862 3.2364 10.7562 3 12 3C13.2438 3 14.4138 3.2364 15.51 3.7092C16.6062 4.182 17.5587 4.8231 18.3675 5.6325C19.1763 6.4419 19.8177 7.3944 20.2917 8.49C20.7657 9.5856 21.0018 10.7556 21 12C20.9982 13.2444 20.7618 14.4144 20.2908 15.51C19.8198 16.6056 19.1787 17.5581 18.3675 18.3675C17.5563 19.1769 16.6038 19.8183 15.51 20.2917C14.4162 20.7651 13.2462 21.0012 12 21Z" fill="#9AA6B6"/>
</svg>
