<svg width="16" height="16" viewBox="0 0 16 16" fill="none" xmlns="http://www.w3.org/2000/svg">
<path d="M4.33354 14.3374L4.22243 14.3325C3.71276 14.2846 3.30728 13.9103 3.25529 13.4399L3.25 13.3374V3.73584H12.75V13.3374L12.7437 13.4399C12.6916 13.9105 12.2865 14.2849 11.7765 14.3325L11.6665 14.3374H4.33354ZM4.87531 12.3374C4.87531 12.6135 5.09916 12.8374 5.37531 12.8374H10.6247C10.9008 12.8374 11.1247 12.6135 11.1247 12.3374V5.23584H4.87531V12.3374Z" fill="#CF3131"/>
<path d="M13.251 3.73584C13.5271 3.73584 13.751 3.9597 13.751 4.23584V4.73584C13.751 5.01198 13.5271 5.23584 13.251 5.23584H2.74902C2.47288 5.23584 2.24902 5.01198 2.24902 4.73584V4.23584C2.24902 3.9597 2.47288 3.73584 2.74902 3.73584H13.251Z" fill="#CF3131"/>
<path d="M10 1.6626C10.2761 1.6626 10.5 1.88646 10.5 2.1626V2.6626C10.5 2.93874 10.2761 3.1626 10 3.1626H6C5.72386 3.1626 5.5 2.93874 5.5 2.6626V2.1626C5.5 1.88646 5.72386 1.6626 6 1.6626H10Z" fill="#CF3131"/>
<path d="M7.55957 11.4126C7.55957 11.6887 7.33571 11.9126 7.05957 11.9126L6.55957 11.9126C6.28343 11.9126 6.05957 11.6887 6.05957 11.4126L6.05957 6.9126C6.05957 6.63646 6.28343 6.4126 6.55957 6.4126L7.05957 6.4126C7.33571 6.4126 7.55957 6.63646 7.55957 6.9126L7.55957 11.4126Z" fill="#CF3131"/>
<path d="M9.94141 11.4126C9.94141 11.6887 9.71755 11.9126 9.44141 11.9126L8.94141 11.9126C8.66526 11.9126 8.44141 11.6887 8.44141 11.4126L8.44141 6.9126C8.44141 6.63646 8.66526 6.4126 8.94141 6.4126L9.44141 6.4126C9.71755 6.4126 9.94141 6.63646 9.94141 6.9126L9.94141 11.4126Z" fill="#CF3131"/>
</svg>
