<svg width="32" height="32" viewBox="0 0 32 32" fill="none" xmlns="http://www.w3.org/2000/svg">
<circle cx="16" cy="16" r="11" fill="#4C7DFF"/>
<path d="M14.0008 17.8875L19.9008 11.9875C20.0841 11.8042 20.3174 11.7125 20.6008 11.7125C20.8841 11.7125 21.1174 11.8042 21.3008 11.9875C21.4841 12.1709 21.5758 12.4042 21.5758 12.6875C21.5758 12.9709 21.4841 13.2042 21.3008 13.3875L14.7008 19.9875C14.5008 20.1875 14.2674 20.2875 14.0008 20.2875C13.7341 20.2875 13.5008 20.1875 13.3008 19.9875L10.7008 17.3875C10.5174 17.2042 10.4258 16.9709 10.4258 16.6875C10.4258 16.4042 10.5174 16.1709 10.7008 15.9875C10.8841 15.8042 11.1174 15.7125 11.4008 15.7125C11.6841 15.7125 11.9174 15.8042 12.1008 15.9875L14.0008 17.8875Z" fill="#EEF4FF"/>
</svg>
