<svg width="16" height="16" viewBox="0 0 16 16" fill="none" xmlns="http://www.w3.org/2000/svg">
<path d="M8 2.50098C8.4141 2.50111 8.75 2.83684 8.75 3.25098V7.25H12.749C13.1631 7.25007 13.499 7.58588 13.499 8C13.499 8.41417 13.1632 8.74993 12.749 8.75H8.75V12.749L8.74609 12.8262C8.70764 13.2042 8.38817 13.4989 8 13.499C7.61174 13.499 7.2924 13.2043 7.25391 12.8262L7.25 12.749V8.75H3.25098L3.17383 8.74609C2.79568 8.70764 2.50098 8.38829 2.50098 8C2.50104 7.61176 2.79572 7.29236 3.17383 7.25391L3.25098 7.25H7.25V3.25098C7.25 2.83676 7.58579 2.50098 8 2.50098Z" fill="#151B26"/>
</svg>
