<svg width="24" height="24" viewBox="0 0 24 24" fill="none" xmlns="http://www.w3.org/2000/svg">
<path d="M6.84068 10.9772C6.84083 7.02283 10.0466 3.81722 13.9999 3.81702L14.368 3.82678C18.1502 4.01868 21.1589 7.14637 21.159 10.9772L21.1581 10.9987V17.0162L22.0194 18.7272C22.528 19.7379 21.8714 20.9194 20.7928 21.0631L20.5721 21.0778V19.5778C20.6044 19.5777 20.6205 19.57 20.6307 19.5641C20.6444 19.5561 20.6612 19.542 20.6747 19.5201C20.6881 19.4983 20.6932 19.4766 20.6942 19.4606C20.6949 19.4485 20.6942 19.43 20.6795 19.401L19.6581 17.3717V10.9645C19.6513 7.94188 17.2762 5.47636 14.2909 5.32483L13.9999 5.31702C10.8753 5.31718 8.34083 7.8509 8.34068 10.9772V17.3717L7.31919 19.401C7.30451 19.4302 7.30383 19.4485 7.30454 19.4606C7.3055 19.4766 7.31156 19.4982 7.32505 19.5201C7.33851 19.5418 7.35525 19.5561 7.369 19.5641C7.37937 19.5701 7.3955 19.5777 7.42759 19.5778V21.0778L7.20689 21.0631C6.20002 20.929 5.56067 19.8909 5.89341 18.9313L5.97935 18.7272L6.84068 17.0162V10.9772ZM20.5721 19.5778V21.0778H7.42759V19.5778H20.5721Z" fill="#4B5568"/>
<path d="M10.5479 20.6088C10.5479 20.1946 10.8836 19.8588 11.2979 19.8588C11.7121 19.8588 12.0479 20.1946 12.0479 20.6088C12.0479 21.6868 12.9219 22.5609 14 22.5609C15.078 22.5609 15.9521 21.6868 15.9521 20.6088C15.9521 20.1946 16.2879 19.8588 16.7021 19.8588C17.1163 19.8589 17.4521 20.1946 17.4521 20.6088C17.4521 22.5152 15.9065 24.0609 14 24.0609C12.0935 24.0609 10.5479 22.5153 10.5479 20.6088Z" fill="#4B5568"/>
</svg>
