<svg width="24" height="24" viewBox="0 0 24 24" fill="none" xmlns="http://www.w3.org/2000/svg">
<path d="M3.00049 6.13525C3.00049 4.78507 4.09502 3.69054 5.4452 3.69054H18.5552C19.9054 3.69054 20.9999 4.78508 20.9999 6.13525V19.3927C20.9999 20.7429 19.9054 21.8374 18.5552 21.8374H5.4452C4.09502 21.8374 3.00049 20.7429 3.00049 19.3927V6.13525Z" fill="#C9D1DE"/>
<path d="M6.85183 3.38495C6.85183 2.70986 7.3991 2.1626 8.07419 2.1626H15.9259C16.601 2.1626 17.1483 2.70986 17.1483 3.38495V3.99613C17.1483 4.67122 16.601 5.21849 15.9259 5.21849H8.07419C7.3991 5.21849 6.85183 4.67122 6.85183 3.99613V3.38495Z" fill="#9AA6B6"/>
<path d="M5.75959 13.1077C5.75959 12.4326 6.30686 11.8853 6.98195 11.8853H16.7608C17.4359 11.8853 17.9831 12.4326 17.9831 13.1077C17.9831 13.7828 17.4359 14.33 16.7608 14.33H6.98195C6.30686 14.33 5.75959 13.7828 5.75959 13.1077Z" fill="#9AA6B6"/>
<path d="M5.75953 17.3897C5.75953 16.7146 6.3068 16.1673 6.98188 16.1673H16.7607C17.4358 16.1673 17.9831 16.7146 17.9831 17.3897C17.9831 18.0647 17.4358 18.612 16.7607 18.612H6.98188C6.3068 18.612 5.75953 18.0647 5.75953 17.3897Z" fill="#9AA6B6"/>
<path d="M5.75938 8.13828C5.75938 7.4632 6.30665 6.91593 6.98173 6.91593H8.20409C8.87918 6.91593 9.42645 7.4632 9.42645 8.13828V9.36064C9.42645 10.0357 8.87918 10.583 8.20409 10.583H6.98173C6.30665 10.583 5.75938 10.0357 5.75938 9.36064V8.13828Z" fill="#9AA6B6"/>
</svg>
