<svg width="24" height="24" viewBox="0 0 24 24" fill="none" xmlns="http://www.w3.org/2000/svg">
<path d="M9.1749 12.8663C10.3893 12.8667 11.3743 13.8513 11.3743 15.0657V19.4646C11.374 20.6788 10.3891 21.6636 9.1749 21.664H4.77605C3.56152 21.664 2.57549 20.679 2.5752 19.4646V15.0657C2.5752 13.851 3.56134 12.8663 4.77605 12.8663H9.1749Z" fill="#4C7DFF"/>
<path d="M19.2255 12.8663C20.4399 12.8667 21.4249 13.8513 21.4249 15.0657V19.4646C21.4246 20.6788 20.4397 21.6636 19.2255 21.664H14.8267C13.6121 21.664 12.6275 20.679 12.6272 19.4646V15.0657C12.6272 13.851 13.612 12.8663 14.8267 12.8663H19.2255Z" fill="#4C7DFF"/>
<path d="M9.1749 2.336C10.3891 2.33639 11.374 3.3212 11.3743 4.53542V8.93427C11.3743 10.1487 10.3893 11.1333 9.1749 11.1337H4.77605C3.56134 11.1337 2.5752 10.149 2.5752 8.93427V4.53542C2.57549 3.32096 3.56152 2.336 4.77605 2.336H9.1749Z" fill="#4C7DFF"/>
<path d="M19.2255 2.336C20.4397 2.33639 21.4246 3.3212 21.4249 4.53542V8.93427C21.4249 10.1487 20.4399 11.1333 19.2255 11.1337H14.8267C13.612 11.1337 12.6272 10.149 12.6272 8.93427V4.53542C12.6275 3.32096 13.6121 2.336 14.8267 2.336H19.2255Z" fill="#4C7DFF"/>
</svg>
