<svg width="72" height="15" viewBox="0 0 72 15" fill="none" xmlns="http://www.w3.org/2000/svg">
<path d="M53.3556 0V14.453H50.8473V0H53.3556ZM41.118 9.9116C43.6429 8.8232 44.5214 6.40332 44.5269 4.42541V4.23757H41.6595V2.26519H44.5158V0.370166H47.0131V2.26519H49.8031V4.23757H47.0352V4.42541C47.0352 6.30387 47.8915 8.67403 50.444 9.71823L49.1125 11.6188C47.5158 10.989 46.4385 9.74033 45.8031 8.25414C45.1733 9.83978 44.0849 11.1768 42.433 11.8287L41.118 9.9116Z" fill="#4C7DFF"/>
<path d="M39.5115 1.08838V2.28727C39.5005 4.02761 39.5392 6.116 38.8154 9.34805L36.3679 9.11048C36.5778 8.14915 36.7215 7.28175 36.8209 6.48064L28.7325 6.92816L28.4011 4.81214L36.9867 4.56904C37.0143 4.02761 37.0254 3.53037 37.0309 3.0718H28.9093V1.08838H39.5115ZM27.4563 12.9779V10.9613H31.8872V7.65191H34.3734V10.9613H40.6331V12.9779H27.4563Z" fill="#4C7DFF"/>
<path d="M25.8994 0V14.453H23.3911V0H25.8994ZM13.6619 9.9116C16.1867 8.8232 17.0652 6.40332 17.0707 4.42541V4.23757H14.2033V2.26519H17.0597V0.370166H19.5569V2.26519H22.3469V4.23757H19.579V4.42541C19.579 6.30387 20.4353 8.67403 22.9878 9.71823L21.6563 11.6188C20.0597 10.989 18.9823 9.74033 18.3469 8.25414C17.7171 9.83978 16.6287 11.1768 14.9768 11.8287L13.6619 9.9116Z" fill="#4C7DFF"/>
<path d="M12.0552 1.08838V2.28727C12.0442 4.02761 12.0829 6.116 11.3591 9.34805L8.9116 9.11048C9.12155 8.14915 9.26519 7.28175 9.36464 6.48064L1.27624 6.92816L0.944751 4.81214L9.53039 4.56904C9.55801 4.02761 9.56906 3.53037 9.57459 3.0718H1.45304V1.08838H12.0552ZM0 12.9779V10.9613H4.43094V7.65191H6.91713V10.9613H13.1768V12.9779H0Z" fill="#4C7DFF"/>
<path fill-rule="evenodd" clip-rule="evenodd" d="M68.167 0.377523C68.6704 -0.125699 69.4868 -0.125657 69.9903 0.377523L71.4307 1.81893C71.9342 2.3224 71.9342 3.1387 71.4307 3.64217L60.9971 14.0758C60.4936 14.5792 59.6773 14.5792 59.1739 14.0758L57.7334 12.6353C57.23 12.1319 57.23 11.3156 57.7334 10.8121L68.167 0.377523ZM67.6338 8.83651C68.1373 8.33326 68.9537 8.33311 69.4571 8.83651L70.8975 10.2769C71.4009 10.7803 71.4007 11.5967 70.8975 12.1002L69.4571 13.5416C68.9537 14.045 68.1373 14.0448 67.6338 13.5416L66.1924 12.1002C65.6892 11.5967 65.689 10.7803 66.1924 10.2769L67.6338 8.83651ZM59.708 0.912679C60.2115 0.409208 61.0278 0.409208 61.5313 0.912679L62.9717 2.35311C63.4752 2.85658 63.4752 3.67288 62.9717 4.17635L61.5313 5.61678C61.0278 6.12025 60.2115 6.12025 59.708 5.61678L58.2676 4.17635C57.7641 3.67288 57.7641 2.85658 58.2676 2.35311L59.708 0.912679Z" fill="#4C7DFF"/>
</svg>
