<svg width="120" height="33" viewBox="0 0 120 33" fill="none" xmlns="http://www.w3.org/2000/svg">
<path d="M119.826 1.52588e-05V32.5194H114.182V1.52588e-05H119.826ZM92.291 22.3011C97.972 19.8522 99.9485 14.4075 99.9609 9.9572V9.53454H93.5092V5.0967H99.936V0.832888H105.555V5.0967H111.832V9.53454H105.605V9.9572C105.605 14.1837 107.531 19.5166 113.274 21.866L110.279 26.1423C106.686 24.7252 104.262 21.9158 102.832 18.5718C101.415 22.1395 98.9664 25.1478 95.2496 26.6147L92.291 22.3011Z" fill="#4C7DFF"/>
<path d="M88.7513 2.44891V5.14643C88.7264 9.06217 88.8134 13.7611 87.185 21.0332L81.6781 20.4986C82.1504 18.3357 82.4736 16.384 82.6974 14.5815L64.4985 15.5884L63.7526 10.8274L83.0703 10.2804C83.1325 9.06217 83.1573 7.94339 83.1698 6.91162H64.8963V2.44891H88.7513ZM61.627 29.2003V24.663H71.5966V17.2169H77.1905V24.663H91.2747V29.2003H61.627Z" fill="#4C7DFF"/>
<path d="M58.1986 1.52588e-05V32.5194H52.5549V1.52588e-05H58.1986ZM30.6641 22.3011C36.345 19.8522 38.3215 14.4075 38.334 9.9572V9.53454H31.8823V5.0967H38.3091V0.832888H43.9279V5.0967H50.2055V9.53454H43.9776V9.9572C43.9776 14.1837 45.9044 19.5166 51.6475 21.866L48.6516 26.1423C45.0591 24.7252 42.6351 21.9158 41.2055 18.5718C39.7884 22.1395 37.3395 25.1478 33.6226 26.6147L30.6641 22.3011Z" fill="#4C7DFF"/>
<path d="M27.1243 2.44891V5.14643C27.0994 9.06217 27.1865 13.7611 25.558 21.0332L20.0511 20.4986C20.5235 18.3357 20.8467 16.384 21.0704 14.5815L2.87155 15.5884L2.12569 10.8274L21.4434 10.2804C21.5055 9.06217 21.5304 7.94339 21.5428 6.91162H3.26934V2.44891H27.1243ZM0 29.2003V24.663H9.96961V17.2169H15.5635V24.663H29.6478V29.2003H0Z" fill="#4C7DFF"/>
</svg>
