<svg width="54" height="15" viewBox="0 0 54 15" fill="none" xmlns="http://www.w3.org/2000/svg">
<path d="M53.3557 0V14.453H50.8474V0H53.3557ZM41.1182 9.9116C43.643 8.8232 44.5215 6.40332 44.527 4.42541V4.23757H41.6596V2.26519H44.516V0.370166H47.0132V2.26519H49.8032V4.23757H47.0353V4.42541C47.0353 6.30387 47.8916 8.67403 50.4441 9.71823L49.1126 11.6188C47.516 10.989 46.4386 9.74033 45.8032 8.25414C45.1734 9.83978 44.085 11.1768 42.4331 11.8287L41.1182 9.9116Z" fill="#4C7DFF"/>
<path d="M39.5113 1.08838V2.28727C39.5003 4.02761 39.5389 6.116 38.8152 9.34805L36.3677 9.11048C36.5776 8.14915 36.7213 7.28175 36.8207 6.48064L28.7323 6.92816L28.4008 4.81214L36.9864 4.56904C37.0141 4.02761 37.0251 3.53037 37.0306 3.0718H28.9091V1.08838H39.5113ZM27.4561 12.9779V10.9613H31.887V7.65191H34.3732V10.9613H40.6329V12.9779H27.4561Z" fill="#4C7DFF"/>
<path d="M25.8997 0V14.453H23.3914V0H25.8997ZM13.6621 9.9116C16.187 8.8232 17.0654 6.40332 17.071 4.42541V4.23757H14.2035V2.26519H17.0599V0.370166H19.5571V2.26519H22.3472V4.23757H19.5792V4.42541C19.5792 6.30387 20.4356 8.67403 22.9881 9.71823L21.6566 11.6188C20.0599 10.989 18.9826 9.74033 18.3472 8.25414C17.7174 9.83978 16.629 11.1768 14.977 11.8287L13.6621 9.9116Z" fill="#4C7DFF"/>
<path d="M12.0552 1.08838V2.28727C12.0442 4.02761 12.0829 6.116 11.3591 9.34805L8.9116 9.11048C9.12155 8.14915 9.26519 7.28175 9.36464 6.48064L1.27624 6.92816L0.944751 4.81214L9.53039 4.56904C9.55801 4.02761 9.56906 3.53037 9.57459 3.0718H1.45304V1.08838H12.0552ZM0 12.9779V10.9613H4.43094V7.65191H6.91713V10.9613H13.1768V12.9779H0Z" fill="#4C7DFF"/>
</svg>
