<svg width="32" height="32" viewBox="0 0 32 32" fill="none" xmlns="http://www.w3.org/2000/svg">
<path d="M13.9168 3.13972C14.9057 1.64927 17.0943 1.64927 18.0832 3.13972L21.0337 7.58666C21.3659 8.08733 21.8673 8.45161 22.4461 8.61282L27.5871 10.0447C29.3102 10.5247 29.9865 12.6061 28.8746 14.0072L25.5571 18.1874C25.1835 18.6581 24.992 19.2475 25.0176 19.8478L25.2444 25.1797C25.3204 26.9668 23.5499 28.2532 21.8738 27.6286L16.8729 25.7653C16.3099 25.5555 15.6901 25.5555 15.1271 25.7653L10.1262 27.6286C8.45014 28.2532 6.67957 26.9668 6.75559 25.1797L6.98243 19.8478C7.00797 19.2475 6.81646 18.6581 6.44295 18.1874L3.12541 14.0072C2.0135 12.6061 2.6898 10.5247 4.41288 10.0447L9.55393 8.61282C10.1327 8.45161 10.6341 8.08733 10.9663 7.58666L13.9168 3.13972Z" fill="#7FA4FF"/>
</svg>
