<svg width="20" height="19" viewBox="0 0 20 19" fill="none" xmlns="http://www.w3.org/2000/svg">
<path d="M8.23389 1.26367C8.80766 0.245705 10.2734 0.245705 10.8472 1.26367L12.4644 4.13281C12.8211 4.76559 13.4359 5.21179 14.1479 5.35547L17.3765 6.00684C18.5215 6.23816 18.9744 7.632 18.1841 8.49219L15.9546 10.917C15.463 11.4518 15.2287 12.1739 15.312 12.8955L15.6899 16.167C15.8241 17.3277 14.6381 18.1901 13.5757 17.7041L10.5806 16.333C9.9201 16.0308 9.16096 16.0308 8.50049 16.333L5.50537 17.7041C4.44291 18.1901 3.25697 17.3277 3.39111 16.167L3.76904 12.8955C3.85233 12.1739 3.61802 11.4518 3.12646 10.917L0.896973 8.49219C0.106644 7.632 0.559575 6.23816 1.70459 6.00684L4.93311 5.35547C5.6452 5.21179 6.25992 4.76559 6.6167 4.13281L8.23389 1.26367Z" stroke="#9AA6B6"/>
</svg>
