<svg width="24" height="24" viewBox="0 0 24 24" fill="none" xmlns="http://www.w3.org/2000/svg">
<path d="M11.8291 4.49603C12.1296 3.57707 13.43 3.57707 13.7305 4.49603L14.6191 7.21381C15.1982 8.98474 16.5674 10.3863 18.3242 11.0068L20.3203 11.7119C21.2096 12.0259 21.2096 13.2835 20.3203 13.5976L18.3242 14.3036C16.5675 14.9241 15.1983 16.3249 14.6191 18.0956L13.7305 20.8144C13.43 21.7334 12.1296 21.7334 11.8291 20.8144L10.9404 18.0956C10.3613 16.3249 8.99208 14.9241 7.23535 14.3036L5.23926 13.5976C4.34995 13.2835 4.34995 12.0259 5.23926 11.7119L7.23535 11.0068C8.99219 10.3863 10.3614 8.98474 10.9404 7.21381L11.8291 4.49603ZM5.50293 2.91302C5.68485 2.35686 6.47242 2.35682 6.6543 2.91302L6.69531 3.03998C7.01979 4.03194 7.78643 4.81733 8.77051 5.16498C9.26878 5.34096 9.26878 6.04564 8.77051 6.22162C7.78639 6.56935 7.01969 7.35454 6.69531 8.34662L6.6543 8.4726C6.47242 9.02884 5.6848 9.02884 5.50293 8.4726L5.46191 8.34662C5.13748 7.35439 4.37008 6.56926 3.38574 6.22162C2.88784 6.04556 2.88797 5.34118 3.38574 5.16498C4.36997 4.81737 5.13742 4.03206 5.46191 3.03998L5.50293 2.91302Z" fill="#C9D1DE"/>
</svg>
