<svg width="24" height="24" viewBox="0 0 24 24" fill="none" xmlns="http://www.w3.org/2000/svg">
<path d="M17.9502 8.79578C18.1452 8.99107 18.1454 9.30774 17.9502 9.50289L8.37599 19.0771C8.28553 19.1676 8.16344 19.2194 8.03556 19.2228L5.2824 19.2967C4.99593 19.3043 4.76104 19.0694 4.76864 18.783L4.84253 16.0298C4.84599 15.9019 4.89846 15.7805 4.98892 15.6901L14.5632 6.11582C14.7584 5.92056 15.075 5.92056 15.2703 6.11582L17.9502 8.79578ZM20.4251 6.32091C20.62 6.5162 20.6203 6.83287 20.4251 7.02801L19.439 8.0141C19.2439 8.20924 18.9272 8.20901 18.7319 8.0141L16.052 5.33413C15.8567 5.13887 15.8567 4.82229 16.052 4.62703L17.038 3.64095C17.2333 3.44568 17.5499 3.44568 17.7452 3.64095L20.4251 6.32091Z" fill="#6F7B8C"/>
</svg>
