<svg width="172" height="177" viewBox="0 0 172 177" fill="none" xmlns="http://www.w3.org/2000/svg">
<path d="M121.712 10.0171C123.501 10.0171 124.951 11.4673 124.951 13.2561V29.4509C124.951 31.2397 123.501 32.6899 121.712 32.6899H80.8208C77.2431 32.6899 74.3428 35.5901 74.3428 39.1678V69.2765C74.3428 70.5363 75.3641 71.5575 76.6238 71.5575H121.712C123.501 71.5575 124.951 73.0077 124.951 74.7965V90.9913C124.951 92.78 123.501 94.23 121.712 94.23H72.9622C71.1734 94.23 69.7233 92.78 69.7232 90.9913V77.0772C69.7232 75.8175 68.702 74.7962 67.4423 74.7962H54.9091C53.1203 74.7962 51.6701 73.3463 51.6701 71.5575V32.6899C51.6701 30.9011 53.1202 29.4509 54.9091 29.4509H64.249C67.2723 29.4509 69.7232 27 69.7232 23.9766V13.2561C69.7232 11.4673 71.1734 10.0171 72.9622 10.0171H121.712Z" fill="#4C7DFF"/>
<path d="M46.2006 10.1589C46.2006 7.73501 48.1656 5.77002 50.5895 5.77002H62.3399C64.7638 5.77002 66.7288 7.735 66.7288 10.1589V21.9093C66.7288 24.3332 64.7638 26.2982 62.3399 26.2982H50.5895C48.1656 26.2982 46.2006 24.3332 46.2006 21.9093V10.1589Z" fill="#4C7DFF"/>
<path d="M171.152 130V176.445H163.091V130H171.152ZM131.826 161.851C139.94 158.353 142.763 150.577 142.781 144.221V143.617H133.566V137.279H142.745V131.19H150.77V137.279H159.736V143.617H150.841V144.221C150.841 150.258 153.593 157.874 161.795 161.23L157.517 167.337C152.386 165.313 148.924 161.301 146.882 156.525C144.858 161.62 141.36 165.917 136.052 168.012L131.826 161.851Z" fill="#4C7DFF"/>
<path d="M126.766 133.498V137.35C126.73 142.943 126.855 149.654 124.529 160.04L116.664 159.277C117.338 156.187 117.8 153.4 118.12 150.826L92.1274 152.264L91.0622 145.464L118.652 144.683C118.741 142.943 118.776 141.345 118.794 139.871H92.6956V133.498H126.766ZM88.0262 171.705V165.224H102.265V154.59H110.254V165.224H130.37V171.705H88.0262Z" fill="#4C7DFF"/>
<path d="M83.1256 130V176.445H75.0652V130H83.1256ZM43.8 161.851C51.9137 158.353 54.7366 150.577 54.7544 144.221V143.617H45.54V137.279H54.7189V131.19H62.7438V137.279H71.7097V143.617H62.8148V144.221C62.8148 150.258 65.5667 157.874 73.7692 161.23L69.4904 167.337C64.3594 165.313 60.8974 161.301 58.8556 156.525C56.8316 161.62 53.3341 165.917 48.0255 168.012L43.8 161.851Z" fill="#4C7DFF"/>
<path d="M38.7397 133.498V137.35C38.7042 142.943 38.8284 149.654 36.5026 160.04L28.6375 159.277C29.3122 156.187 29.7738 153.4 30.0934 150.826L4.10122 152.264L3.03597 145.464L30.626 144.683C30.7148 142.943 30.7503 141.345 30.768 139.871H4.66936V133.498H38.7397ZM0 171.705V165.224H14.2389V154.59H22.2283V165.224H42.3438V171.705H0Z" fill="#4C7DFF"/>
</svg>
