<svg width="172" height="178" viewBox="0 0 172 178" fill="none" xmlns="http://www.w3.org/2000/svg">
<path fill-rule="evenodd" clip-rule="evenodd" d="M102.879 50.9083C105.308 48.4794 109.246 48.4794 111.675 50.9083L118.626 57.8585C121.055 60.2874 121.055 64.2264 118.626 66.6554L111.675 73.6056C109.246 76.0345 105.308 76.0345 102.879 73.6056L95.929 66.6554C93.5001 64.2264 93.5001 60.2874 95.929 57.8585L102.879 50.9083ZM102.606 7.24814C105.035 4.8192 108.973 4.8192 111.402 7.24814L118.353 14.1993C120.782 16.6283 120.782 20.5663 118.353 22.9952L68.016 73.3321C65.5871 75.761 61.649 75.7609 59.2201 73.3321L52.2689 66.381C49.8399 63.952 49.8399 60.014 52.2689 57.5851L102.606 7.24814ZM58.9466 6.9747C61.3756 4.5458 65.3136 4.54577 67.7425 6.9747L74.6937 13.9259C77.1225 16.3548 77.1225 20.2929 74.6937 22.7218L67.7425 29.6729C65.3136 32.1017 61.3755 32.1017 58.9466 29.6729L51.9954 22.7218C49.5665 20.2929 49.5666 16.3548 51.9954 13.9259L58.9466 6.9747Z" fill="#4C7DFF"/>
<path d="M171.152 131.109V177.554H163.091V131.109H171.152ZM131.826 162.96C139.94 159.463 142.763 151.686 142.781 145.33V144.727H133.566V138.388H142.745V132.299H150.77V138.388H159.736V144.727H150.841V145.33C150.841 151.367 153.593 158.983 161.795 162.339L157.517 168.446C152.386 166.422 148.924 162.41 146.882 157.634C144.858 162.729 141.36 167.026 136.052 169.121L131.826 162.96Z" fill="#4C7DFF"/>
<path d="M126.766 134.607V138.459C126.73 144.052 126.855 150.763 124.529 161.149L116.664 160.386C117.338 157.297 117.8 154.509 118.12 151.935L92.1274 153.373L91.0622 146.573L118.652 145.792C118.741 144.052 118.776 142.454 118.794 140.98H92.6956V134.607H126.766ZM88.0262 172.814V166.333H102.265V155.699H110.254V166.333H130.37V172.814H88.0262Z" fill="#4C7DFF"/>
<path d="M83.1256 131.109V177.554H75.0652V131.109H83.1256ZM43.8 162.96C51.9137 159.463 54.7366 151.686 54.7544 145.33V144.727H45.54V138.388H54.7189V132.299H62.7438V138.388H71.7097V144.727H62.8148V145.33C62.8148 151.367 65.5667 158.983 73.7692 162.339L69.4904 168.446C64.3594 166.422 60.8974 162.41 58.8556 157.634C56.8316 162.729 53.3341 167.026 48.0255 169.121L43.8 162.96Z" fill="#4C7DFF"/>
<path d="M38.7397 134.607V138.459C38.7042 144.052 38.8284 150.763 36.5026 161.149L28.6375 160.386C29.3122 157.297 29.7738 154.509 30.0934 151.935L4.10122 153.373L3.03597 146.573L30.626 145.792C30.7148 144.052 30.7503 142.454 30.768 140.98H4.66936V134.607H38.7397ZM0 172.814V166.333H14.2389V155.699H22.2283V166.333H42.3438V172.814H0Z" fill="#4C7DFF"/>
</svg>
