<svg width="120" height="33" viewBox="0 0 120 33" fill="none" xmlns="http://www.w3.org/2000/svg">
<path d="M119.825 0V32.5193H114.182V0H119.825ZM92.2908 22.3011C97.9717 19.8522 99.9482 14.4075 99.9607 9.95718V9.53453H93.509V5.09668H99.9358V0.832872H105.555V5.09668H111.832V9.53453H105.604V9.95718C105.604 14.1837 107.531 19.5166 113.274 21.866L110.278 26.1423C106.686 24.7251 104.262 21.9157 102.832 18.5718C101.415 22.1395 98.9662 25.1478 95.2493 26.6146L92.2908 22.3011Z" fill="#4C7DFF"/>
<path d="M88.7509 2.44891V5.14643C88.726 9.06217 88.813 13.7611 87.1846 21.0332L81.6777 20.4986C82.1501 18.3357 82.4733 16.384 82.697 14.5815L64.4981 15.5884L63.7523 10.8274L83.07 10.2804C83.1321 9.06217 83.157 7.94339 83.1694 6.91162H64.8959V2.44891H88.7509ZM61.6266 29.2003V24.663H71.5962V17.2169H77.1901V24.663H91.2744V29.2003H61.6266Z" fill="#4C7DFF"/>
<path d="M58.1987 0V32.5193H52.5551V0H58.1987ZM30.6642 22.3011C36.3451 19.8522 38.3216 14.4075 38.3341 9.95718V9.53453H31.8824V5.09668H38.3092V0.832872H43.928V5.09668H50.2056V9.53453H43.9777V9.95718C43.9777 14.1837 45.9045 19.5166 51.6476 21.866L48.6518 26.1423C45.0592 24.7251 42.6352 21.9157 41.2056 18.5718C39.7885 22.1395 37.3396 25.1478 33.6227 26.6146L30.6642 22.3011Z" fill="#4C7DFF"/>
<path d="M27.1244 2.44891V5.14643C27.0995 9.06217 27.1865 13.7611 25.5581 21.0332L20.0512 20.4986C20.5235 18.3357 20.8467 16.384 21.0705 14.5815L2.87161 15.5884L2.12575 10.8274L21.4434 10.2804C21.5056 9.06217 21.5304 7.94339 21.5429 6.91162H3.2694V2.44891H27.1244ZM6.10352e-05 29.2003V24.663H9.96968V17.2169H15.5636V24.663H29.6479V29.2003H6.10352e-05Z" fill="#4C7DFF"/>
</svg>
