<svg width="16" height="16" viewBox="0 0 16 16" fill="none" xmlns="http://www.w3.org/2000/svg">
<path d="M8 3C10.7614 3 13 5.23858 13 8C13 10.7614 10.7614 13 8 13C5.23858 13 3 10.7614 3 8C3 5.23858 5.23858 3 8 3ZM7.84961 7.125C7.51847 7.12521 7.25008 7.39344 7.25 7.72461V10.3613C7.25008 10.6925 7.51847 10.9607 7.84961 10.9609H8.15039C8.48153 10.9607 8.74992 10.6925 8.75 10.3613V7.72461C8.74992 7.39344 8.48153 7.12521 8.15039 7.125H7.84961ZM8 4.89453C7.58579 4.89453 7.25 5.23032 7.25 5.64453C7.25026 6.05852 7.58595 6.39453 8 6.39453C8.41405 6.39453 8.74974 6.05852 8.75 5.64453C8.75 5.23032 8.41421 4.89453 8 4.89453Z" fill="#151B26"/>
</svg>
