<svg width="24" height="24" viewBox="0 0 24 24" fill="none" xmlns="http://www.w3.org/2000/svg">
<path d="M2.50313 9.85308C2.49414 9.20618 2.79281 8.59343 3.30793 8.20199L10.8244 2.4902C11.5573 1.9333 12.5725 1.9367 13.3016 2.4985L20.7033 8.20174C21.212 8.59368 21.5062 9.20243 21.4973 9.84453L21.3573 19.9182C21.3418 21.0326 20.4339 21.928 19.3193 21.928H4.68097C3.56638 21.928 2.65852 21.0326 2.64303 19.9182L2.50313 9.85308Z" fill="#C9D1DE"/>
<path d="M8.46045 16.928C8.46045 15.2711 9.80359 13.928 11.4604 13.928H12.5394C14.1963 13.928 15.5394 15.2711 15.5394 16.928V21.928H8.46045V16.928Z" fill="#9AA6B6"/>
</svg>
