<svg width="16" height="16" viewBox="0 0 16 16" fill="none" xmlns="http://www.w3.org/2000/svg">
<path d="M4.46512 10.5C4.32558 10.5 4.21318 10.4468 4.12791 10.3404C4.04264 10.234 4 10.1099 4 9.96809C4 9.93262 4.04651 9.80851 4.13953 9.59575L7.51163 5.73936C7.58915 5.65071 7.66667 5.58865 7.74419 5.55319C7.82171 5.51773 7.90698 5.5 8 5.5C8.09302 5.5 8.17829 5.51773 8.25581 5.55319C8.33333 5.58865 8.41085 5.65071 8.48837 5.73936L11.8605 9.59575C11.907 9.64894 11.9419 9.70656 11.9651 9.76862C11.9884 9.83067 12 9.89716 12 9.96809C12 10.1099 11.9574 10.234 11.8721 10.3404C11.7868 10.4468 11.6744 10.5 11.5349 10.5H4.46512Z" fill="#151B26"/>
</svg>
