<svg width="24" height="24" viewBox="0 0 24 24" fill="none" xmlns="http://www.w3.org/2000/svg">
<g clip-path="url(#clip0_350_1006)">
<path d="M4.58723 4.58754C7.68505 1.48972 12.7066 1.48887 15.8036 4.58547C18.6568 7.43865 18.8784 11.9235 16.4734 15.0346L19.5311 18.0923C19.8626 18.4241 19.8628 18.962 19.5311 19.2938C19.1992 19.6257 18.6607 19.6261 18.3289 19.2945L15.2967 16.2624C12.1801 18.8892 7.51937 18.7381 4.58516 15.8039C1.48866 12.707 1.48969 7.68538 4.58723 4.58754ZM5.78876 5.78907C3.35506 8.22306 3.3545 12.1684 5.78738 14.6017C8.22058 17.0349 12.1666 17.0348 14.6007 14.601C17.0347 12.1669 17.0353 8.22029 14.602 5.787C12.1687 3.35403 8.22274 3.35509 5.78876 5.78907Z" fill="#4B5568"/>
</g>
<defs>
<clipPath id="clip0_350_1006">
<rect width="24" height="24" fill="white"/>
</clipPath>
</defs>
</svg>
