<svg width="24" height="24" viewBox="0 0 24 24" fill="none" xmlns="http://www.w3.org/2000/svg">
<path fill-rule="evenodd" clip-rule="evenodd" d="M11.8284 4.49623C12.1289 3.57727 13.4293 3.57727 13.7298 4.49623L14.6185 7.214C15.1975 8.98493 16.5667 10.3865 18.3236 11.007L20.3197 11.712C21.209 12.0261 21.209 13.2837 20.3197 13.5978L18.3236 14.3038C16.5668 14.9243 15.1976 16.3251 14.6185 18.0958L13.7298 20.8146C13.4293 21.7335 12.1289 21.7335 11.8284 20.8146L10.9398 18.0958C10.3607 16.3251 8.99142 14.9243 7.2347 14.3038L5.2386 13.5978C4.34929 13.2837 4.34929 12.0261 5.2386 11.712L7.2347 11.007C8.99154 10.3865 10.3607 8.98493 10.9398 7.214L11.8284 4.49623ZM5.50228 2.91322C5.6842 2.35707 6.47176 2.35703 6.65364 2.91322L6.69466 3.04017C7.01913 4.03214 7.78577 4.81752 8.76985 5.16517C9.26812 5.34115 9.26812 6.04583 8.76985 6.22181C7.78574 6.56954 7.01904 7.35474 6.69466 8.34681L6.65364 8.47279C6.47177 9.02903 5.68415 9.02903 5.50228 8.47279L5.46126 8.34681C5.13683 7.35458 4.36942 6.56946 3.38509 6.22181C2.8872 6.04574 2.88732 5.34137 3.38509 5.16517C4.36932 4.81756 5.13677 4.03226 5.46126 3.04017L5.50228 2.91322Z" fill="url(#paint0_linear_3041_7317)"/>
<defs>
<linearGradient id="paint0_linear_3041_7317" x1="4.74257" y1="2.49609" x2="25.0289" y2="16.1111" gradientUnits="userSpaceOnUse">
<stop stop-color="#7FA4FF"/>
<stop offset="1" stop-color="#A27AFF"/>
</linearGradient>
</defs>
</svg>
