<svg width="16" height="16" viewBox="0 0 16 16" fill="none" xmlns="http://www.w3.org/2000/svg">
<path d="M10.0463 7.49992L9.44634 8.11325C9.05525 8.50435 8.78365 8.84676 8.69645 9.50109C8.65998 9.77482 8.44248 9.99992 8.16634 9.99992H7.66634C7.48225 9.99992 7.33301 9.85068 7.33301 9.66658C7.33301 8.92658 7.63301 8.25992 8.11301 7.77992L8.93967 6.93992C9.18634 6.69992 9.33301 6.36658 9.33301 5.99992C9.33301 5.6463 9.19253 5.30716 8.94248 5.05711C8.69243 4.80706 8.3533 4.66659 7.99967 4.66658C7.64605 4.66659 7.30691 4.80706 7.05687 5.05711C6.92617 5.1878 6.82542 5.34283 6.759 5.51154C6.65785 5.7685 6.44248 5.99992 6.16634 5.99992H5.83301C5.55687 5.99992 5.32826 5.77412 5.37974 5.50282C5.47885 4.98049 5.73275 4.4956 6.11406 4.1143C6.61415 3.6142 7.29243 3.33325 7.99967 3.33325C8.70692 3.33325 9.38519 3.6142 9.88529 4.1143C10.3854 4.6144 10.6663 5.29267 10.6663 5.99992C10.6654 6.56208 10.4426 7.10114 10.0463 7.49992ZM7.99967 1.33325C7.1242 1.33325 6.25729 1.50569 5.44845 1.84072C4.63961 2.17575 3.90469 2.66682 3.28563 3.28587C2.03539 4.53612 1.33301 6.23181 1.33301 7.99992C1.33301 9.76803 2.03539 11.4637 3.28563 12.714C3.90469 13.333 4.63961 13.8241 5.44845 14.1591C6.25729 14.4941 7.1242 14.6666 7.99967 14.6666C9.76778 14.6666 11.4635 13.9642 12.7137 12.714C13.964 11.4637 14.6663 9.76803 14.6663 7.99992C14.6663 4.31325 11.6663 1.33325 7.99967 1.33325Z" fill="#9AA6B6"/>
<circle cx="7.99967" cy="11.9999" r="0.666667" fill="white"/>
</svg>
